<svg aria-hidden="true" style="position: absolute; width: 0; height: 0; overflow: hidden;" version="1.1" xmlns="http://www.w3.org/2000/svg" xmlns:xlink="http://www.w3.org/1999/xlink">
<defs>

<symbol id="icon-alarm" viewBox="0 0 33 32">
<title>icon-alarm</title>
<path d="M31.732 9.806c-1.676-3.833-4.673-6.83-8.401-8.465l-0.104-0.041c1.032-0.815 2.323-1.301 3.747-1.301 3.345 0 6.059 2.715 6.059 6.059 0 1.425-0.485 2.715-1.301 3.747zM31.484 16.516c0 3.974-1.559 7.577-4.088 10.261l2.095 2.095c0.268 0.279 0.444 0.661 0.444 1.084 0 0.846-0.681 1.528-1.528 1.528-0.423 0-0.805-0.175-1.084-0.444l-2.25-2.25c-2.386 1.685-5.355 2.693-8.56 2.693-3.198 0-6.162-1.004-8.592-2.715l0.047 0.032-2.23 2.23c-0.28 0.28-0.667 0.453-1.094 0.453-0.855 0-1.547-0.693-1.547-1.547 0-0.427 0.173-0.814 0.453-1.094l2.075-2.075c-2.519-2.684-4.077-6.276-4.077-10.25 0-8.268 6.699-14.968 14.968-14.968s14.968 6.699 14.968 14.968zM16.516 4.645c-6.555 0-11.871 5.316-11.871 11.871s5.316 11.871 11.871 11.871 11.871-5.316 11.871-11.871-5.316-11.871-11.871-11.871zM22.71 18.065h-6.194c-0.857 0-1.548-0.692-1.548-1.548v-8.258c0-0.857 0.692-1.548 1.548-1.548s1.548 0.692 1.548 1.548v6.71h4.645c0.857 0 1.548 0.692 1.548 1.548s-0.692 1.548-1.548 1.548zM1.332 10.023c-0.83-1.037-1.332-2.368-1.332-3.817 0-0.005 0-0.009 0-0.014v0.001c0-3.417 2.777-6.194 6.194-6.194 1.445 0 2.777 0.495 3.83 1.332-3.923 1.704-6.987 4.769-8.65 8.585l-0.041 0.106z"></path>
</symbol>

<symbol id="icon-book" viewBox="0 0 32 32">
<title>icon-book</title>
<path d="M31.060 25.89l-14.47 5.99c-0.18 0.080-0.38 0.12-0.59 0.12s-0.41-0.040-0.59-0.12l-14.47-5.99c-0.55-0.22-0.94-0.76-0.94-1.39v-23c0-0.83 0.67-1.5 1.5-1.5 0.2 0 0.4 0.040 0.57 0.11l0.010 0.010h0.010l13.91 5.76 13.93-5.77c0.17-0.070 0.37-0.11 0.57-0.11 0.83 0 1.5 0.67 1.5 1.5v23c0 0.63-0.39 1.17-0.94 1.39zM14.5 8.5l-11.5-4.76v19.76l11.5 4.76v-19.76zM29 3.74l-11.5 4.76v19.76l11.5-4.76v-19.76zM19.88 10.63l5.5-2.5c0.19-0.080 0.4-0.13 0.62-0.13 0.83 0 1.5 0.67 1.5 1.5 0 0.61-0.36 1.13-0.88 1.37l-5.5 2.5c-0.19 0.080-0.4 0.13-0.62 0.13-0.83 0-1.5-0.67-1.5-1.5 0-0.61 0.36-1.13 0.88-1.37zM19.88 16.13l5.5-2.5c0.19-0.080 0.4-0.13 0.62-0.13 0.83 0 1.5 0.67 1.5 1.5 0 0.61-0.36 1.13-0.88 1.37l-5.5 2.5v-0.010c-0.19 0.090-0.4 0.14-0.62 0.14-0.83 0-1.5-0.67-1.5-1.5 0-0.61 0.36-1.13 0.88-1.37zM19.88 21.63l5.5-2.5c0.19-0.080 0.4-0.13 0.62-0.13 0.83 0 1.5 0.67 1.5 1.5 0 0.61-0.36 1.13-0.88 1.37l-5.5 2.5c-0.19 0.080-0.4 0.13-0.62 0.13-0.83 0-1.5-0.67-1.5-1.5 0-0.61 0.36-1.13 0.88-1.37zM6 8c0.22 0 0.43 0.050 0.62 0.13l5.5 2.5c0.52 0.24 0.88 0.76 0.88 1.37 0 0.83-0.67 1.5-1.5 1.5-0.224-0.002-0.437-0.049-0.63-0.134l0.010 0.004-5.5-2.5c-0.52-0.24-0.88-0.76-0.88-1.37 0-0.83 0.67-1.5 1.5-1.5zM6 13.5c0.22 0 0.43 0.050 0.62 0.13l5.5 2.5c0.52 0.24 0.88 0.76 0.88 1.37 0 0.83-0.67 1.5-1.5 1.5-0.22 0-0.43-0.050-0.62-0.14v0.010l-5.5-2.5c-0.52-0.24-0.88-0.76-0.88-1.37 0-0.83 0.67-1.5 1.5-1.5zM6 19c0.22 0 0.43 0.050 0.62 0.13l5.5 2.5c0.52 0.24 0.88 0.76 0.88 1.37 0 0.83-0.67 1.5-1.5 1.5-0.224-0.002-0.437-0.049-0.63-0.134l0.010 0.004-5.5-2.5c-0.52-0.24-0.88-0.76-0.88-1.37 0-0.83 0.67-1.5 1.5-1.5z"></path>
</symbol>

<symbol id="icon-computer" viewBox="0 0 37 32">
<title>icon-computer</title>
<path d="M34.286 26.286h-10.857v2.857l2.286 2.286v0.571h-14.857v-0.571l2.286-2.286v-2.857h-10.857c-0.949 0-1.714-0.766-1.714-1.714v-22.857c0-0.949 0.766-1.714 1.714-1.714h32c0.949 0 1.714 0.766 1.714 1.714v22.857c0 0.949-0.766 1.714-1.714 1.714zM33.714 2.286h-30.857v19.429h30.857v-19.429zM14.857 10.286c0.469 0 0.903 0.194 1.211 0.503l1.074 1.074 3.36-3.36c0.31-0.31 0.738-0.502 1.211-0.502 0.946 0 1.713 0.767 1.713 1.713 0 0.473-0.192 0.901-0.502 1.211l-4.571 4.571c-0.309 0.309-0.743 0.503-1.211 0.503s-0.903-0.194-1.211-0.503l-2.286-2.286c-0.312-0.31-0.505-0.739-0.505-1.214 0-0.946 0.767-1.712 1.712-1.712 0.001 0 0.003 0 0.004 0h-0z"></path>
</symbol>

<symbol id="icon-digital" viewBox="0 0 34 32">
<title>icon-digital</title>
<path d="M31.5 32h-29c-0.83 0-1.5-0.67-1.5-1.5v-29c0-0.83 0.67-1.5 1.5-1.5h29c0.83 0 1.5 0.67 1.5 1.5v29c0 0.83-0.67 1.5-1.5 1.5zM30 3h-26v26h26v-26zM7.5 4.5h5.5c0.83 0 1.5 0.67 1.5 1.5s-0.67 1.5-1.5 1.5h-4.5v4.5c0 0.83-0.67 1.5-1.5 1.5s-1.5-0.67-1.5-1.5v-7.5h2zM5.5 20c0-0.83 0.67-1.5 1.5-1.5s1.5 0.67 1.5 1.5v4.5h4.5c0.83 0 1.5 0.67 1.5 1.5s-0.67 1.5-1.5 1.5h-7.5v-7.5zM21 4.5h7.5v7.5c0 0.83-0.67 1.5-1.5 1.5s-1.5-0.67-1.5-1.5v-4.5h-4.5c-0.83 0-1.5-0.67-1.5-1.5s0.67-1.5 1.5-1.5zM21 24.5h4.5v-4.5c0-0.83 0.67-1.5 1.5-1.5s1.5 0.67 1.5 1.5v7.5h-7.5c-0.83 0-1.5-0.67-1.5-1.5s0.67-1.5 1.5-1.5z"></path>
</symbol>

<symbol id="icon-facebook" viewBox="0 0 16 32">
<title>icon-facebook</title>
<path d="M5.022 2.055c-1.797 1.834-1.858 5.415-2.006 9.046h-2.892v4.96h2.929v15.692h6.868v-15.754h3.963c0.308-1.662 0.603-2.966 1.034-4.898h-4.96c0.049-1.649-0.258-3.938 0.258-4.726 0.935-1.428 4.677-1.058 4.677-1.058v-5.071c-5.895 0-7.828-0.246-9.858 1.809z"></path>
</symbol>

<symbol id="icon-home" viewBox="0 0 33 32">
<title>icon-home</title>
<path d="M33.032 17.032c0 0.857-0.692 1.548-1.548 1.548-0.413 0-0.774-0.165-1.053-0.423v0.010l-13.915-13.915-13.884 13.884c-0.279 0.279-0.661 0.444-1.084 0.444-0.001 0-0.003 0-0.004 0-0.854 0-1.546-0.692-1.546-1.546 0-0.439 0.183-0.835 0.476-1.116l14.927-14.927c0.279-0.289 0.681-0.475 1.115-0.475h0.093c0.021 0 0.052 0.010 0.072 0.010 0.382 0.041 0.723 0.217 0.97 0.485l6.090 6.090v-1.425c0-0.857 0.692-1.548 1.548-1.548s1.548 0.692 1.548 1.548v4.521l5.781 5.781h-0.010c0.258 0.279 0.423 0.64 0.423 1.053zM29.935 19.613v10.839c0 0.857-0.692 1.548-1.548 1.548h-3.097v-12.387h-6.194v12.387h-14.452c-0.857 0-1.548-0.692-1.548-1.548v-10.839l13.419-13.419 13.419 13.419zM13.935 19.613h-6.194v6.194h6.194v-6.194z"></path>
</symbol>

<symbol id="icon-instagram" viewBox="0 0 32 32">
<title>icon-instagram</title>
<path d="M27.938 31.754h-23.631c-2.178 0-3.938-1.76-3.938-3.938v-23.631c0-2.178 1.76-3.938 3.938-3.938h23.631c2.178 0 3.938 1.76 3.938 3.938v23.631c0 2.178-1.76 3.938-3.938 3.938zM16.123 9.895c-2.462 0-4.566 1.452-5.538 3.545-0.012 0.025-0.025 0.049-0.025 0.062-0.062 0.135-0.111 0.271-0.16 0.406l-0.074 0.185c-0.049 0.135-0.086 0.283-0.123 0.418-0.012 0.062-0.025 0.135-0.049 0.197l-0.074 0.455c0 0.062-0.025 0.123-0.025 0.185-0.022 0.196-0.035 0.423-0.035 0.652 0 3.371 2.732 6.104 6.103 6.105h0c3.371-0.001 6.103-2.734 6.103-6.105 0-0.23-0.013-0.457-0.037-0.68l0.002 0.027c0-0.062-0.025-0.123-0.025-0.185l-0.074-0.455c-0.025-0.062-0.037-0.135-0.049-0.197-0.037-0.135-0.074-0.283-0.123-0.418l-0.074-0.185c-0.049-0.135-0.098-0.271-0.16-0.406 0-0.012-0.012-0.037-0.025-0.062-0.972-2.092-3.077-3.545-5.538-3.545zM28.332 5.366c0-0.874-0.702-1.575-1.575-1.575h-3.151c-0.874 0-1.575 0.702-1.575 1.575v3.151c0 0.874 0.702 1.575 1.575 1.575h3.151c0.874 0 1.575-0.702 1.575-1.575v-3.151zM28.332 13.44h-2.905c0.219 0.766 0.345 1.646 0.345 2.556 0 5.329-4.32 9.649-9.649 9.649s-9.649-4.32-9.649-9.649c0-0.909 0.126-1.79 0.361-2.624l-0.016 0.068h-2.905v13.194c0 0.874 0.702 1.575 1.575 1.575h21.268c0.874 0 1.575-0.702 1.575-1.575v-13.194z"></path>
</symbol>

<symbol id="icon-linefraph" viewBox="0 0 32 32">
<title>icon-linegraph</title>
<path d="M29.576 32h-28.121c-0.805 0-1.455-0.65-1.455-1.455v-28.121c0-0.805 0.65-1.455 1.455-1.455h28.121c0.805 0 1.455 0.65 1.455 1.455v28.121c0 0.805-0.65 1.455-1.455 1.455zM28.121 3.879h-25.212v25.212h25.212v-25.212zM5.062 16.718h-0.010l3.879-2.424h0.010c0.213-0.136 0.475-0.213 0.756-0.213 0.301 0 0.582 0.087 0.815 0.242h0.010l6.429 4.286 7.399-5.236c0.242-0.175 0.543-0.271 0.863-0.271 0.802 0 1.452 0.65 1.452 1.453 0 0.481-0.234 0.908-0.595 1.172l-0.004 0.003-8.242 5.818c-0.242 0.175-0.533 0.281-0.853 0.281-0.31 0-0.601-0.107-0.834-0.271l-6.458-4.296-3.035 1.901c-0.233 0.155-0.524 0.252-0.824 0.252-0.001 0-0.003 0-0.005 0-0.802 0-1.453-0.65-1.453-1.453 0-0.525 0.278-0.984 0.695-1.24l0.006-0.004z"></path>
</symbol>

<symbol id="icon-pinterest" viewBox="0 0 26 32">
<title>icon-pinterest</title>
<path d="M12.763 22.277c0.665 0.382 1.465 0.64 2.437 0.714 0.997 0.074 1.945-0.111 2.757-0.345 0.825-0.246 1.551-0.603 2.154-0.997 2.486-1.625 4.135-4.468 4.726-7.951 0.16-0.935 0.382-1.858 0.382-2.917 0-1.046-0.246-1.969-0.492-2.818-0.48-1.637-1.231-2.942-2.252-4.074-1.006-1.109-2.227-2.003-3.599-2.619l-0.068-0.027c-1.408-0.638-3.054-1.009-4.786-1.009-0.191 0-0.381 0.005-0.57 0.013l0.027-0.001c-0.702 0.037-1.354 0.074-1.982 0.16-1.883 0.271-3.434 0.849-4.812 1.662-1.796 1.065-3.241 2.549-4.229 4.323l-0.030 0.058c-0.48 0.886-0.923 1.982-1.157 3.175-0.246 1.231-0.246 2.708 0 3.988 0.394 2.092 1.378 3.705 2.978 4.591 0.209 0.123 0.529 0.308 0.788 0.295 0.615-0.012 0.628-0.738 0.763-1.255 0.111-0.431 0.369-1.034 0.148-1.428-0.16-0.283-0.406-0.492-0.566-0.738-0.517-0.775-0.837-1.785-0.837-3.077 0-1.674 0.406-3.028 1.034-4.197 1.182-2.24 3.2-3.865 6.043-4.345 1.575-0.271 3.335-0.135 4.615 0.283 1.292 0.418 2.351 1.169 3.089 2.105 0.788 0.985 1.28 2.252 1.391 3.84 0.062 0.862 0 1.723-0.086 2.474-0.258 2.338-0.935 4.308-2.055 5.772-0.702 0.911-1.748 1.883-3.262 1.932-0.862 0.025-1.477-0.185-1.994-0.566-0.505-0.369-0.874-0.862-1.046-1.575-0.185-0.775 0.037-1.514 0.234-2.228 0.394-1.452 0.825-2.572 1.157-4.074 0.148-0.665 0.283-1.575 0.098-2.326-0.172-0.714-0.529-1.218-1.071-1.538-0.517-0.308-1.366-0.431-2.129-0.16-1.206 0.418-1.994 1.575-2.326 2.88-0.197 0.738-0.258 1.538-0.172 2.388 0.074 0.751 0.258 1.378 0.529 2.092 0.037 0.098-0.074 0.382-0.111 0.554-0.603 2.56-1.169 5.046-1.772 7.582-0.308 1.329-0.652 2.671-0.726 4.271-0.062 1.403-0.185 2.855-0.012 4.111 0.037 0.234 0.049 0.394 0.209 0.418 0.209 0.049 0.062 0.369 0.775-0.443 1.071-1.231 1.871-2.757 2.511-4.332 0.382-0.948 0.615-2.006 0.886-3.040 0.271-1.046 0.529-2.129 0.788-3.151 0.394 0.702 0.96 1.157 1.625 1.526z"></path>
</symbol>

<symbol id="icon-twitter" viewBox="0 0 38 32">
<title>icon-twitter</title>
<path d="M24.538 0.989c-0.596 0.131-1.178 0.291-1.702 0.524-2.167 0.945-3.651 2.691-4.32 5.135-0.276 0.975-0.378 2.589-0.044 3.593-1.222 0-2.4-0.189-3.433-0.451-4.029-0.989-6.545-2.327-9.338-4.509-0.815-0.64-1.629-1.367-2.269-2.167-0.204-0.262-0.538-0.495-0.684-0.8-0.015 0-0.029-0.015-0.044-0.015-0.32 0.596-0.625 1.251-0.815 1.993-0.756 2.909 0.436 5.353 1.716 6.924 0.393 0.48 1.018 0.785 1.396 1.222h0.044c-0.291 0.102-0.785-0.044-1.047-0.087-0.596-0.116-1.105-0.233-1.6-0.451-0.262-0.116-0.524-0.247-0.785-0.378-0.015 3.215 1.615 5.295 3.593 6.545 0.655 0.407 1.556 0.945 2.502 1.004-0.509 0.422-2.662 0.233-3.404 0.145 0.931 2.415 2.371 4.015 4.844 4.887 0.64 0.218 1.411 0.422 2.269 0.407-0.451 0.538-1.425 0.975-2.065 1.353-1.324 0.771-2.851 1.28-4.582 1.658-0.698 0.145-1.425 0.116-2.182 0.247-0.829 0.131-1.702-0.073-2.444-0.087 0.218 0.131 0.451 0.276 0.669 0.407 0.684 0.422 1.396 0.785 2.167 1.12 1.382 0.611 2.865 1.062 4.495 1.469 3.287 0.815 7.942 0.451 10.807-0.451 8-2.487 13.062-8.32 14.967-16.887 0.335-1.469 0.378-3.156 0.349-4.902 0.393-0.32 0.8-0.625 1.193-0.945 0.989-0.785 1.905-1.891 2.589-2.967v-0.015c-1.295 0.407-2.662 1.149-4.32 1.164v-0.015c0.32-0.131 0.582-0.393 0.844-0.596 1.164-0.902 1.92-2.080 2.473-3.593-0.32 0.175-0.64 0.349-0.945 0.524-0.975 0.495-2.633 1.207-3.913 1.324-1.498-1.367-3.084-2.444-6.036-2.4-0.305 0.029-0.625 0.073-0.931 0.116z"></path>
</symbol>

<symbol id="search" viewBox="0 0 32 32">
<title>search</title>
<path d="M30.791 26.631c0.533 0.533 0.853 1.262 0.853 2.080 0 1.618-1.316 2.933-2.933 2.933-0.818 0-1.547-0.338-2.080-0.853l-8.587-8.604c-1.742 1.031-3.787 1.636-5.956 1.636-6.471 0-11.733-5.262-11.733-11.733 0-6.48 5.253-11.733 11.733-11.733v0c6.489 0 11.733 5.244 11.733 11.733 0 2.169-0.604 4.196-1.636 5.956l8.604 8.587zM12.089 3.289c-4.853 0-8.8 3.947-8.8 8.8s3.947 8.8 8.8 8.8 8.8-3.947 8.8-8.8-3.947-8.8-8.8-8.8z"></path>
</symbol>

<symbol id="shoppingcart" viewBox="0 0 38 32">
<title>shoppingcart</title>
<path d="M37.824 7.808l-5.291 11.733c-0.256 0.576-0.811 1.003-1.493 1.045l-15.189 1.003 0.875 2.517h16.555c1.941 0 3.52 1.579 3.52 3.52s-1.579 3.52-3.52 3.52c-1.941 0-3.52-1.579-3.52-3.52h-16.427c0 1.941-1.579 3.52-3.52 3.52s-3.52-1.579-3.52-3.52c0-1.941 1.579-3.52 3.52-3.52h3.179l-6.784-19.371h-4.011c-0.006 0-0.014 0-0.021 0-0.966 0-1.749-0.783-1.749-1.749 0-0 0-0 0-0v0c0-0.981 0.789-1.771 1.771-1.771h5.269c0.768 0 1.408 0.512 1.664 1.195l1.024 2.923h26.069c0.969 0.003 1.753 0.789 1.753 1.758 0 0.26-0.056 0.506-0.157 0.728l0.005-0.011zM11.392 8.853l3.243 9.301 15.125-1.024 3.733-8.277h-22.101z"></path>
</symbol>

</defs>
</svg>
